<svg width="532" height="644" viewBox="0 0 532 644" fill="none" xmlns="http://www.w3.org/2000/svg">
<path d="M329.759 24.4252C318.845 28.1114 35.595 265.842 27.9644 277.558C21.6401 287.952 19.6475 308.577 23.8075 321.155C28.191 333.985 269.98 606.82 283.455 614.414C296.483 621.504 316.919 623.235 329.397 618.011C343.37 612.188 624.988 373.63 630.349 363.165C636.278 351.561 637.051 334.387 632.1 322.696C629.436 316.128 585.984 265.272 502.397 171.118C394.213 49.4387 375.134 29.1607 366.884 26.1969C353.924 21.4724 340.415 20.9562 329.759 24.4252ZM367.28 34.0148C379.191 39.8427 618.968 310.406 624.71 324.516C629.66 336.207 628.991 348.668 623.302 360.289C617.941 370.754 341.479 604.969 327.506 610.792C317.28 615 300.367 614.707 290.072 609.942C281.169 605.986 34.6703 328.086 31.0432 318.144C27.6053 308.923 28.6012 292.002 32.8975 282.875C37.2282 273.279 317.969 36.7804 330.396 32.2607C342.581 27.7235 355.592 28.4392 367.28 34.0148Z" fill="url(#paint0_linear_164_94)" fill-opacity="0.3"/>
<path d="M328.332 109.999C313.31 113.62 302.053 122.002 213.852 196.744C148.354 252.14 119.344 278.341 116.233 284.486C107.486 301.548 110.083 332.186 121.169 342.674C123.197 344.711 150.163 323.317 230.613 255.325C289.391 205.81 338.08 165.234 338.802 165.287C339.524 165.34 373.746 203.484 414.86 249.921L489.716 334.466L403.354 407.218L316.992 479.97L286.156 445.142L255.56 410.332L321.006 355.641L386.693 300.967L378.22 294.446C360.55 281.352 338 278.758 318.957 287.751C303.678 294.894 210.992 374.736 205.613 385.436C199.392 397.726 198.447 417.248 203.312 430.113C206.2 436.933 220.81 455.468 246.094 483.517C286.796 528.98 291.145 532.366 312.801 533.95C336.382 535.675 335.883 535.875 435.857 452.317C487.4 409.118 532.875 369.487 536.673 363.864C542.843 355.583 544.149 350.958 545.145 337.341C545.969 326.072 545.092 318.219 542.376 312.355C537.409 300.899 384.38 127.552 371.954 118.854C361.349 111.706 339.417 107.269 328.332 109.999ZM366.849 125.798C379.293 134.261 530.053 305.553 534.574 316.505C539.541 327.962 537.961 346.256 530.846 357.537C527.546 362.961 486.952 398.7 431.56 444.922C343.943 518.29 337.275 523.467 326.258 525.257C313.78 527.177 300.632 525.035 291.144 519.148C283.96 514.846 214.037 435.618 210.96 428.076C206.422 417.359 207.229 399.716 213.072 389.286C219.757 377.266 309.247 301.438 324.75 294.547C340.974 287.709 366.119 291.201 369.265 301.108C370.039 303.761 353.437 319.068 310.625 355.353C277.868 383.169 250.954 407.163 250.851 408.572C250.353 415.38 257.778 426.309 279.728 450.337C306.146 479.413 313.211 485.358 319.845 483.955C325.757 482.5 490.49 343.728 493.325 338.035C494.236 335.505 494.287 331.496 493.273 328.826C490.781 323.215 357.485 171.138 348.134 163.374C343.562 159.735 340.727 158.819 336.275 160.146C333.302 161.108 285.214 200.076 229.547 246.75C173.88 293.424 127.304 331.558 126.101 331.47C119.364 330.977 116.509 307.165 121.407 293.126C124.483 284.146 135.637 273.868 218.149 204.139C269.468 160.687 314.755 123.639 318.983 122.06C336.204 114.823 352.566 116.02 366.849 125.798Z" fill="url(#paint1_linear_164_94)" fill-opacity="0.3"/>
<defs>
<linearGradient id="paint0_linear_164_94" x1="22" y1="305.5" x2="585.5" y2="365.5" gradientUnits="userSpaceOnUse">
<stop stop-color="white"/>
<stop offset="0.276908" stop-color="#A6A4A4" stop-opacity="0.983208"/>
<stop offset="0.372944" stop-color="#5C5959" stop-opacity="0.969322"/>
<stop offset="0.757894" stop-color="#1D1D1D" stop-opacity="0.5"/>
</linearGradient>
<linearGradient id="paint1_linear_164_94" x1="111.162" y1="310.346" x2="509.923" y2="352.777" gradientUnits="userSpaceOnUse">
<stop stop-color="white"/>
<stop offset="0.276908" stop-color="#A6A4A4" stop-opacity="0.983208"/>
<stop offset="0.372944" stop-color="#5C5959" stop-opacity="0.969322"/>
<stop offset="0.757894" stop-color="#1D1D1D" stop-opacity="0.5"/>
</linearGradient>
</defs>
</svg>
