<svg width="50" height="50" viewBox="0 0 50 50" fill="none" xmlns="http://www.w3.org/2000/svg">
<path d="M23.3337 0.291349C22.4706 0.664065 0.913606 22.1443 0.364383 23.1643C-0.086765 24.0667 -0.125995 25.793 0.285922 26.813C0.717455 27.8527 21.941 49.0583 23.0787 49.6075C24.1771 50.1176 25.8444 50.1372 26.8252 49.6271C27.9236 49.0583 49.3433 27.5192 49.716 26.6169C50.128 25.6164 50.0887 24.1844 49.618 23.2428C49.363 22.7131 45.538 18.7506 38.202 11.4336C28.7082 1.97838 27.041 0.409049 26.3544 0.212883C25.2756 -0.100983 24.1771 -0.06175 23.3337 0.291349ZM26.4329 0.860231C27.4333 1.27218 48.4803 22.3012 49.0295 23.439C49.5003 24.3806 49.5199 25.4202 49.1276 26.4207C48.7549 27.323 27.7275 48.4698 26.629 49.0386C25.8248 49.4506 24.4518 49.5291 23.5887 49.1956C22.8433 48.9209 1.20783 27.323 0.854761 26.5188C0.521304 25.7733 0.501689 24.3609 0.795916 23.5763C1.09014 22.7524 22.451 1.38988 23.4318 0.938697C24.3929 0.487515 25.4521 0.467899 26.4329 0.860231Z" fill="white"/>
<path d="M23.7255 7.41217C22.529 7.8045 21.6659 8.56955 14.9576 15.3177C9.97533 20.3199 7.77844 22.6739 7.56267 23.2035C6.9546 24.6748 7.3469 27.2053 8.30805 28.0096C8.48458 28.1666 10.5442 26.2245 16.6641 20.0845C21.1363 15.6119 24.8436 11.9436 24.9024 11.9436C24.9613 11.9436 27.9624 14.9057 31.5716 18.5152L38.1426 25.0867L31.5716 31.6583L25.0005 38.2299L22.2936 35.5228L19.6064 32.8157L24.5886 27.8723L29.5905 22.9289L28.8647 22.4385C27.3543 21.4577 25.5105 21.3792 24.0198 22.2423C22.8232 22.9289 15.7814 30.1282 15.4087 31.0502C14.9772 32.1095 15.0164 33.7377 15.4872 34.7774C15.7618 35.3266 17.0564 36.7782 19.2729 38.9557C22.8429 42.4867 23.2155 42.7417 24.9809 42.7417C26.9032 42.7417 26.8639 42.7613 34.4746 35.2089C38.3976 31.3052 41.8499 27.735 42.1245 27.2446C42.5757 26.5188 42.6541 26.1264 42.6541 24.9887C42.6541 24.0471 42.5364 23.3997 42.2814 22.9289C41.8107 22.0069 28.3743 8.53032 27.3151 7.88297C26.4128 7.35332 24.6082 7.11792 23.7255 7.41217ZM26.9424 8.49109C28.0016 9.11882 41.2418 22.4385 41.6734 23.3212C42.1441 24.2432 42.1245 25.7733 41.6145 26.7542C41.3791 27.225 38.2996 30.4421 34.0823 34.6204C27.4132 41.2508 26.9032 41.7216 26.0205 41.9374C25.0201 42.1728 23.9413 42.0747 23.1371 41.6432C22.529 41.3293 16.3895 35.1697 16.0952 34.5616C15.6637 33.6984 15.6245 32.2272 16.0364 31.3248C16.5072 30.2851 23.3136 23.4389 24.5298 22.772C25.8047 22.105 27.8643 22.2423 28.1782 23.0466C28.2566 23.2624 27.0013 24.6356 23.7451 27.9115C21.254 30.4225 19.2141 32.5803 19.2141 32.698C19.2141 33.2669 19.881 34.13 21.8032 35.9936C24.1178 38.2495 24.7259 38.7007 25.2555 38.5437C25.7263 38.3868 38.2603 25.8518 38.4565 25.3614C38.5153 25.1456 38.4957 24.8121 38.3976 24.5963C38.1623 24.1451 26.452 12.3163 25.6478 11.7278C25.2555 11.4532 25.0201 11.3943 24.6671 11.5317C24.4317 11.6297 20.7636 15.1607 16.5268 19.3783C12.2899 23.5959 8.73958 27.0484 8.6415 27.0484C8.09228 27.0484 7.71959 25.0867 8.03343 23.8901C8.22959 23.1251 9.07304 22.2031 15.3499 15.9062C19.2533 11.9828 22.7055 8.6284 23.039 8.47147C24.3924 7.76527 25.7263 7.76527 26.9424 8.49109Z" fill="#68DC0E"/>
</svg>
