<svg width="600" height="600" viewBox="0 0 600 600" fill="none" xmlns="http://www.w3.org/2000/svg">
<g clip-path="url(#clip0_206_71)">
<path d="M531.57 355.356C466.192 418.257 401.196 480.803 336.182 543.332C314.299 564.378 287.933 564.509 266.196 543.61C196.752 476.848 127.307 410.087 57.9541 343.237C39.8194 325.757 37.1533 302.974 50.7562 284.437C52.8988 281.517 55.5606 278.913 58.2003 276.372C127.604 209.574 197.034 142.801 266.464 76.0289C287.888 55.4253 314.69 55.6624 335.904 76.13C405.042 142.835 474.312 209.414 543.565 276.008C565.654 297.25 565.718 322.454 543.598 343.774C539.716 347.516 535.83 351.255 531.57 355.356ZM85.3664 358.502C147.878 418.685 210.343 478.911 272.93 539.021C290.69 556.078 311.9 555.767 329.854 538.519C399.51 471.604 469.149 404.673 538.767 337.723C557.161 320.034 557.087 299.719 538.699 281.974C502.549 247.087 466.421 212.177 430.247 177.312C396.533 144.82 362.863 112.284 328.99 79.9456C312.702 64.3963 290.415 63.7965 274.734 78.826C203.404 147.194 132.214 215.7 61.1412 284.315C46.0075 298.926 46.1498 319.917 60.869 334.792C68.6178 342.622 76.6904 350.157 85.3664 358.502Z" fill="#FBFBFB"/>
<path d="M173.379 303.746C161.35 315.298 149.72 326.54 137.997 337.692C131.904 343.488 130.824 343.344 126.08 336.85C111.861 317.387 114.297 293.084 132.725 275.248C169.711 239.45 206.885 203.832 243.982 168.14C251.401 161.002 258.724 153.769 266.261 146.747C286.493 127.896 316.331 127.702 336.258 146.748C381.088 189.595 425.775 232.584 470.307 275.718C490.76 295.528 490.439 324.25 469.932 344.029C425.47 386.912 380.963 429.752 336.396 472.534C316.637 491.501 287.084 492.086 267.024 473.488C248.32 456.145 229.911 438.486 211.927 420.453C192.725 401.2 192.787 373.37 212.066 354.277C234.168 332.388 256.622 310.815 279.33 289.505C297.84 272.132 323.915 270.594 343.622 284.729C348.239 288.041 349.126 290.51 344.566 294.861C314.775 323.293 285.204 351.939 255.594 380.545C248.375 387.518 248.393 387.605 255.784 394.759C268.991 407.545 282.231 420.3 295.503 433.024C297.235 434.685 298.66 436.789 300.449 437.256C344.814 394.505 388.866 352.054 433.936 308.624C433.902 307.521 431.306 306.077 429.444 304.284C388.835 265.173 348.092 226.188 307.637 186.93C302.467 181.914 299.449 182.239 294.462 187.078C254.366 225.989 214.013 264.657 173.379 303.746Z" fill="#02C39A"/>
</g>
<defs>
<clipPath id="clip0_206_71">
<rect width="600" height="600" fill="white"/>
</clipPath>
</defs>
</svg>
