<svg width="580" height="27" viewBox="0 0 580 27" fill="none" xmlns="http://www.w3.org/2000/svg">
<path d="M12.0792 10.0715C14.4697 9.60388 18.3943 9.15958 24.0621 8.75105C78.2381 15.1056 142.467 18.2722 193.16 18.2671C218.512 18.2645 240.491 17.4687 256.139 15.8793C263.959 15.085 270.221 14.0903 274.537 12.8899C276.692 12.2908 278.394 11.6317 279.569 10.9014C280.723 10.1835 281.5 9.3105 281.5 8.24916C281.5 8.22613 281.507 8.15691 281.631 8.03559C281.758 7.91011 281.978 7.76431 282.316 7.60913C282.992 7.29963 284.026 7.00431 285.419 6.73079C288.195 6.1855 292.273 5.74912 297.448 5.41253C307.793 4.73978 322.448 4.46996 339.674 4.50258C374.121 4.56781 418.811 5.84234 459.765 7.51296C500.722 9.18363 537.932 11.25 557.423 12.898C562.297 13.3101 566.053 13.6952 568.481 14.0405C569.077 14.1253 569.588 14.2069 570.011 14.2847C569.946 14.2918 569.878 14.2989 569.808 14.3059C568.81 14.4055 567.395 14.4917 565.532 14.5621C561.808 14.703 556.319 14.7799 548.844 14.7799C501.68 14.7798 455.944 13.6501 416.152 12.6673C397.695 12.2114 380.517 11.7871 365.069 11.5218C340.701 11.1032 320.628 11.0801 306.644 11.9554C299.657 12.3928 294.16 13.056 290.4 14.0158C288.524 14.4948 287.042 15.0568 286.018 15.7263C284.995 16.3958 284.344 17.2336 284.344 18.2663C284.344 18.3067 284.33 18.3824 284.221 18.5013C284.107 18.6253 283.912 18.7703 283.609 18.9262C283.002 19.2381 282.068 19.541 280.804 19.826C278.285 20.3943 274.577 20.8652 269.861 21.244C260.436 22.0011 247.06 22.3846 231.28 22.468C199.723 22.6348 158.592 21.6015 120.304 19.9673C82.0134 18.333 46.5833 16.0984 26.4258 13.8642C21.3863 13.3056 17.3111 12.748 14.3882 12.2016C12.9255 11.9282 11.7633 11.6597 10.9177 11.3988C10.4945 11.2682 10.1616 11.1428 9.91443 11.0246C9.75335 10.9476 9.6455 10.8813 9.57642 10.8299C9.60802 10.8086 9.64937 10.7833 9.70309 10.7547C10.1024 10.5421 10.8684 10.3084 12.0792 10.0715Z" stroke="#D6E0CE"/>
</svg>
